<?xml version="1.0" encoding="utf-8"?>
<!-- Svg Vector Icons : http://www.sfont.cn -->
<!DOCTYPE svg PUBLIC "-//W3C//DTD SVG 1.1//EN" "http://www.w3.org/Graphics/SVG/1.1/DTD/svg11.dtd">
<svg version="1.1" xmlns="http://www.w3.org/2000/svg" xmlns:xlink="http://www.w3.org/1999/xlink" x="0px" y="0px" viewBox="0 0 1000 1000" enable-background="new 0 0 1000 1000" xml:space="preserve">
<metadata> Svg Vector Icons : http://www.sfont.cn </metadata>
<g><g><path d="M828.8,481.3L333.6,18.9c-8.8-8.3-21.5-11-32.9-7.2c-11.5,3.8-19.9,13.6-22,25.5L161.2,704.5c-2.3,13.2,3.6,26.4,14.9,33.6c11.3,7.1,25.8,6.7,36.7-1l163.1-116.1l128.4,346.6c5.8,17.2,24.4,26.6,41.7,20.8l168.8-56.5c17.2-5.8,26.6-24.4,20.8-41.7L607.1,543.6l200.1-5.4c13.3-0.4,25.2-8.7,29.9-21.2C841.9,504.5,838.6,490.4,828.8,481.3z M560.9,479c-10.4,0.3-20.1,5.5-26.1,14c-6,8.6-7.6,19.4-4.2,29.3l132,357.5l-106.4,35.6l-132-357.5c-3.3-9.9-11.1-17.7-21.1-20.9c-9.9-3.2-20.8-1.6-29.3,4.5L240,636.7l93-528.3l392.1,366.1L560.9,479z"/></g><g></g><g></g><g></g><g></g><g></g><g></g><g></g><g></g><g></g><g></g><g></g><g></g><g></g><g></g><g></g></g>
</svg>