<?xml version="1.0" encoding="utf-8"?>
<!-- Svg Vector Icons : http://www.sfont.cn -->
<!DOCTYPE svg PUBLIC "-//W3C//DTD SVG 1.1//EN" "http://www.w3.org/Graphics/SVG/1.1/DTD/svg11.dtd">
<svg version="1.1" xmlns="http://www.w3.org/2000/svg" xmlns:xlink="http://www.w3.org/1999/xlink" x="0px" y="0px" viewBox="0 0 1000 1000" enable-background="new 0 0 1000 1000" xml:space="preserve">
<metadata> Svg Vector Icons : http://www.sfont.cn </metadata>
<g><path d="M940.1,365.6l-50,50L574.1,731.7L440.7,865c-82.8,82.7-216.9,82.7-299.6,0c-82.8-82.8-82.8-216.9,0-299.6L274.5,432l116.3-116.3l88.3-88.3l11.6-11.6l50-50l49.9-50l0.1,0.1c0.5-0.6,0.9-1.1,1.4-1.7c55.1-55.1,144.6-55.1,199.8,0c55.1,55.1,55.1,144.6,0,199.8c-0.5,0.5-1.1,0.9-1.7,1.4l0.1,0.1l-50,50l-50,50l-11.6,11.6l-88.2,88.3l-54.9,54.9l-53.9,53.9l-53.2,53.2l-87.6,87.6c-27.6,27.6-72.3,27.6-99.9,0s-27.6-72.3,0-99.9l50-50l37.6-37.6l53.2-53.3l53.9-53.9l104.9-104.9l51.5-51.5l48.4-48.4l-50-49.8L556,250.3L499.4,307l-58.7,58.7L365.4,441l-62.9,62.9l-61.5,61.5l-49.9,50l0.1,0.1c-53.6,55.3-53.2,143.4,1.4,198c54.6,54.6,142.7,55,198,1.4l0.1,0.1l111.4-111.5l62.9-62.9l175.2-175.2l50-50l50-49.8c82.8-82.7,82.8-216.9,0-299.6c-82.8-82.8-216.9-82.8-299.6,0l-49.9,49.9l-50,50L91.1,515.5l0.1,0.1C-17.5,625.9-17.1,803.6,92.7,913.4c109.8,109.8,287.4,110.2,397.8,1.5l0.1,0.1L940,465.5l50-50L940.1,365.6z"/></g>
</svg>