<?xml version="1.0" encoding="utf-8"?>
<!-- Svg Vector Icons : http://www.sfont.cn -->
<!DOCTYPE svg PUBLIC "-//W3C//DTD SVG 1.1//EN" "http://www.w3.org/Graphics/SVG/1.1/DTD/svg11.dtd">
<svg version="1.1" xmlns="http://www.w3.org/2000/svg" xmlns:xlink="http://www.w3.org/1999/xlink" x="0px" y="0px" viewBox="0 0 1000 1000" enable-background="new 0 0 1000 1000" xml:space="preserve">
<metadata> Svg Vector Icons : http://www.sfont.cn </metadata>
<g><g transform="translate(0.000000,511.000000) scale(0.100000,-0.100000)"><path d="M9104.1,2065.3c-168.8-55.6-316.4-178.4-398.9-337.5c-46-86.3-51.8-115.1-51.8-304.9v-209l-918.6-717.3c-504.4-393.1-926.3-715.3-935.9-715.3c-7.7,0-47.9,21.1-88.2,46c-113.2,72.9-205.2,94-375.9,84.4c-170.7-9.6-266.6-47.9-385.5-151.5c-57.5-51.8-74.8-57.5-111.2-40.3c-23,9.6-556.2,299.2-1183.3,642.5L3513.7,985.6l-11.5,151.5c-11.5,180.3-59.5,295.3-170.7,416.2c-207.1,224.4-563.8,262.7-813.1,88.2c-107.4-72.9-153.4-126.6-214.8-249.3c-46-90.1-53.7-128.5-55.6-268.5c0-130.4,9.6-182.2,44.1-258.9l44.1-94L1641.9,76.5L949.6-615.8l-168.8,9.6c-289.6,15.4-485.2-88.2-613.7-324.1c-63.3-115.1-67.1-134.2-67.1-295.4c0-149.6,7.7-186,53.7-281.9c63.3-130.4,172.6-232.1,318.4-299.2c84.4-40.3,138.1-49.9,251.2-51.8c126.6,0,163,9.6,274.2,63.3c138.1,69.1,234,165,304.9,308.8c34.5,71,44.1,120.8,44.1,251.2c0,140-7.7,178.3-51.8,268.5c-28.8,57.5-63.3,120.8-76.7,140c-23,32.6,42.2,101.7,665.5,713.4l690.4,677l57.5-30.7c42.2-24.9,107.4-32.6,239.7-32.6c205.2,0,308.8,36.4,435.3,155.3l67.1,65.2L4560.8,72.7l1187.1-646.3v-128.5c0-257,128.5-460.3,360.5-575.3c111.2-55.6,145.8-63.3,272.3-61.4c253.2,1.9,450.7,124.7,560,347.1c53.7,107.4,63.3,149.6,63.3,264.7c0,72.9-7.7,161.1-15.3,193.7l-15.3,59.5l934,724.9c788.2,611.8,937.8,721.1,964.7,701.9c17.2-11.5,78.6-46,136.2-74.8c140-69,381.7-74.8,521.6-9.6c126.6,57.5,255.1,184.1,316.4,310.7c44.1,90.1,51.8,134.2,53.7,270.4c0,140-7.7,178.4-53.7,270.4c-61.4,128.5-191.8,253.1-316.4,310.7C9432,2073,9188.5,2094.1,9104.1,2065.3z"/></g></g>
</svg>