<?xml version="1.0" encoding="utf-8"?>
<!-- Svg Vector Icons : http://www.sfont.cn -->
<!DOCTYPE svg PUBLIC "-//W3C//DTD SVG 1.1//EN" "http://www.w3.org/Graphics/SVG/1.1/DTD/svg11.dtd">
<svg version="1.1" xmlns="http://www.w3.org/2000/svg" xmlns:xlink="http://www.w3.org/1999/xlink" x="0px" y="0px" viewBox="0 0 1000 1000" enable-background="new 0 0 1000 1000" xml:space="preserve">
<metadata> Svg Vector Icons : http://www.sfont.cn </metadata>
<g><path d="M500,10C228.7,10,10,229.9,10,500c0,271.3,219.9,490,490,490c271.3,0,490-219.9,490-490S771.3,10,500,10z M500,936.2c-240.2,0-435-194.8-435-435S259.8,65,501.2,65c240.2,0,436.2,194.8,436.2,436.2C936.2,741.4,741.4,936.2,500,936.2z"/><path d="M686.4,369.7l-55-56.2L500,445L369.7,313.6l-56.2,56.2L445,501.2L313.6,631.5l56.2,56.2L500,556.2l131.5,131.5l55-56.2L556.2,501.2L686.4,369.7z"/></g>
</svg>