<?xml version="1.0" encoding="utf-8"?>
<!-- Svg Vector Icons : http://www.sfont.cn -->
<!DOCTYPE svg PUBLIC "-//W3C//DTD SVG 1.1//EN" "http://www.w3.org/Graphics/SVG/1.1/DTD/svg11.dtd">
<svg version="1.1" xmlns="http://www.w3.org/2000/svg" xmlns:xlink="http://www.w3.org/1999/xlink" x="0px" y="0px" viewBox="0 0 1000 1000" enable-background="new 0 0 1000 1000" xml:space="preserve">
<metadata> Svg Vector Icons : http://www.sfont.cn </metadata>
<g><g transform="translate(0.000000,512.000000) scale(0.100000,-0.100000)"><path d="M1455,5004.5c-350.6-67.1-670.6-406.2-732-772.2c-76.6-463.7,289.3-950.4,777.9-1030.9c567.2-93.9,1124.8,463.7,1030.9,1030.9C2447.6,4740.1,1947.5,5100.3,1455,5004.5z M1897.7,4667.3c113.1-51.7,239.5-176.3,293.2-291.2c61.3-132.2,57.5-415.8-5.7-546.1c-59.4-120.7-160.9-222.3-281.7-281.7c-78.6-38.3-122.6-46-275.9-46c-216.5,0-314.2,36.4-440.7,162.9c-103.5,103.5-157.1,226.1-168.6,385.1c-21.1,304.7,122.6,540.3,389,636.1C1535.5,4732.4,1773.1,4722.9,1897.7,4667.3z"/><path d="M4827.4,5004.5c-344.9-67.1-664.9-398.6-732-762.6c-86.2-459.9,287.4-960,777.9-1040.5c567.2-93.9,1124.8,463.7,1030.9,1030.9C5820,4740.1,5319.9,5100.3,4827.4,5004.5z M5277.7,4661.5c118.8-57.5,220.4-159,279.7-279.8c38.3-78.6,46-122.6,46-275.9c0-208.9-40.2-318.1-162.9-440.7c-122.6-122.6-231.9-162.9-440.7-162.9c-153.3,0-197.4,7.7-275.9,46c-197.4,97.7-316.2,275.9-333.4,500.1c-21.1,306.6,122.6,542.3,389,638.1C4915.6,4734.4,5149.3,4722.9,5277.7,4661.5z"/><path d="M8199.8,5004.5c-350.6-67.1-670.7-406.2-732-772.2c-76.6-463.7,289.4-950.4,778-1030.9c567.2-93.9,1124.7,463.7,1030.9,1030.9C9192.4,4740.1,8692.3,5100.3,8199.8,5004.5z M8650.1,4661.5c118.8-57.5,220.4-159,279.8-279.8c38.3-78.6,46-122.6,46-275.9c0-208.9-40.2-318.1-162.9-440.7c-122.6-122.6-231.9-162.9-440.7-162.9c-153.3,0-197.4,7.7-275.9,46c-197.4,97.7-316.2,275.9-333.4,500.1c-21.1,306.6,122.6,542.3,389,638.1C8287.9,4734.4,8521.7,4722.9,8650.1,4661.5z"/><path d="M4635.8,2582.5l-354.5-354.5l111.1-109.2l109.2-111.1l172.4,172.5l172.5,172.5v-503.9v-502h153.3h153.3v502v503.9l172.5-172.5l172.5-172.5l109.2,111.1l111.1,109.2L5364,2582.5C5168.5,2778,5005.6,2937,4999.9,2937C4994.1,2937,4831.3,2778,4635.8,2582.5z"/><path d="M8008.2,2582.5l-354.5-354.5l111.1-109.2l109.2-111.1l172.5,172.5l172.5,172.5v-848.8c0-822-1.9-848.8-38.3-885.3s-63.2-38.3-383.2-38.3h-344.9V426.9V273.6h327.6c201.2,0,360.3,9.6,408.2,23c105.4,30.7,283.6,208.9,314.2,314.2c17.3,57.5,23,316.2,23,910.2v831.6l172.5-172.5l172.5-172.5l109.2,111.1l111.1,109.2l-354.5,354.5C8540.9,2778,8378,2937,8372.3,2937C8366.5,2937,8203.7,2778,8008.2,2582.5z"/><path d="M1541.3,2843.1c-30.7-19.2-185.9-166.7-344.9-325.7L909,2228.1l111.1-109.2l109.2-111.1l172.4,172.5l172.5,172.5v-843.1V666.4l46-95.8c55.6-122.6,195.4-247.2,308.5-275.9c46-11.5,226.1-21.1,400.5-21.1h318.1v153.3v153.3h-344.9c-320,0-346.8,1.9-383.2,38.3c-36.4,36.4-38.3,63.2-38.3,885.3v848.8l172.5-172.5l172.5-172.5l109.2,111.1l111.1,109.2L2049,2527c-279.8,279.8-366,352.6-425.4,352.6C1610.3,2879.5,1573.9,2862.3,1541.3,2843.1z"/><path d="M2853.8,120.3v-919.7h2146h2146.1v919.7v919.7H4999.9h-2146V120.3z M6839.4,120.3v-613.1H4999.9H3160.4v613.1v613.2h1839.5h1839.5V120.3z"/><path d="M4233.4,120.3V-32.9h153.3H4540v153.3v153.3h-153.3h-153.3V120.3z"/><path d="M4846.6,120.3V-32.9h153.3h153.3v153.3v153.3h-153.3h-153.3V120.3z"/><path d="M5459.7,120.3V-32.9H5613h153.3v153.3v153.3H5613h-153.3V120.3z"/><path d="M1800-57.8c-95.8-30.7-274-214.6-302.7-312.4c-17.3-57.5-23-316.2-23-910.2v-831.6l-172.5,172.5L1129.3-1767l-109.2-111.1L909-1987.4l306.6-306.6c166.7-166.7,329.6-314.2,358.3-327.6c40.2-17.3,67.1-17.3,107.3,0c28.7,13.4,191.6,160.9,358.3,327.6l306.6,306.6l-111.1,109.2L2125.7-1767l-172.5-172.5l-172.5-172.5v848.8c0,822,1.9,848.8,38.3,885.3c36.4,36.4,63.2,38.3,383.2,38.3h344.9v153.3v153.3l-339.2-1.9C2020.3-36.8,1836.4-46.4,1800-57.8z"/><path d="M7452.5-186.2v-153.3h344.9c320,0,346.8-1.9,383.2-38.3c36.4-36.4,38.3-63.2,38.3-885.3v-848.8l-172.5,172.5L7874.1-1767l-109.2-111.1l-111.1-109.2l360.2-360.2l358.3-358.3l358.3,358.3l360.2,360.2l-111.1,109.2L8870.5-1767L8698-1939.5l-172.5-172.5v843.1v843.1l-46,95.8c-53.6,115-189.7,243.3-295.1,274c-46,13.4-206.9,23-404.3,23h-327.6V-186.2z"/><path d="M4846.6-1608v-503.9l-172.5,172.5L4501.7-1767l-109.2-111.1l-111.1-109.2l360.2-360.2l358.3-358.3l358.3,358.3l360.2,360.2l-111.1,109.2L5498.1-1767l-172.5-172.5l-172.5-172.5v503.9v502h-153.3h-153.3V-1608z"/><path d="M1418.6-2976.1c-350.7-93.9-636.2-406.2-695.6-762.6c-76.6-463.7,289.3-950.4,777.9-1030.9c463.7-76.7,950.4,289.3,1030.9,778C2631.5-3388.1,2005-2817.1,1418.6-2976.1z M1905.3-3309.5c118.8-57.5,220.4-159,279.8-279.8c38.3-78.6,46-122.6,46-275.9c0-208.9-40.2-318.1-162.9-440.7c-122.6-122.6-231.9-162.9-440.7-162.9c-153.3,0-197.4,7.7-275.9,46c-197.4,97.7-316.2,275.9-333.4,500.1c-21.1,306.6,122.6,542.3,389,638.1C1543.2-3236.7,1777-3248.2,1905.3-3309.5z"/><path d="M4827.4-2966.5c-350.6-67.1-670.6-406.2-732-772.2c-76.6-463.7,289.3-950.4,777.9-1030.9c567.2-93.9,1124.8,463.7,1030.9,1030.9C5820-3231,5319.9-2870.7,4827.4-2966.5z M5277.7-3309.5c118.8-57.5,220.4-159,279.7-279.8c38.3-78.6,46-122.6,46-275.9c0-208.9-40.2-318.1-162.9-440.7c-122.6-122.6-231.9-162.9-440.7-162.9c-153.3,0-197.4,7.7-275.9,46c-197.4,97.7-316.2,275.9-333.4,500.1c-21.1,306.6,122.6,542.3,389,638.1C4915.6-3236.7,5149.3-3248.2,5277.7-3309.5z"/><path d="M8199.8-2966.5c-157.1-30.7-346.8-139.9-475.2-274c-364.1-377.5-354.5-910.2,23-1272.3c377.5-362.1,912.1-352.6,1272.3,23c354.5,367.9,354.5,879.5,3.8,1245.5C8795.7-3006.8,8502.6-2907.1,8199.8-2966.5z M8642.4-3303.8c113.1-51.7,239.5-176.3,293.2-291.3c61.3-132.2,57.5-415.8-5.8-546.1c-59.4-120.7-160.9-222.3-281.7-281.7c-78.6-38.3-122.6-46-275.9-46c-216.5,0-314.3,36.4-440.7,162.9c-103.5,103.5-157.1,226.1-168.6,385.1c-21.1,304.7,122.6,540.4,389,636.2C8280.3-3238.6,8517.9-3248.2,8642.4-3303.8z"/></g></g>
</svg>