<?xml version="1.0" encoding="utf-8"?>
<!-- Svg Vector Icons : http://www.sfont.cn -->
<!DOCTYPE svg PUBLIC "-//W3C//DTD SVG 1.1//EN" "http://www.w3.org/Graphics/SVG/1.1/DTD/svg11.dtd">
<svg version="1.1" xmlns="http://www.w3.org/2000/svg" xmlns:xlink="http://www.w3.org/1999/xlink" x="0px" y="0px" viewBox="0 0 1000 1000" enable-background="new 0 0 1000 1000" xml:space="preserve">
<metadata> Svg Vector Icons : http://www.sfont.cn </metadata>
<g><path d="M96.8,263.1c0,132.7,107.6,240.3,240.3,240.3s240.3-107.6,240.3-240.3c0-132.7-107.6-240.3-240.3-240.3S96.8,130.4,96.8,263.1z"/><path d="M327.5,397.2c115.8,0,217.1,58.7,272.6,146.3L461.5,683L325.1,965.4H183.4C80.5,915.7,10,814.5,10,697.6C10,531.8,152.2,397.2,327.5,397.2z M620.2,814c-2.6,5.8-5.3,11.5-8.3,17L620.2,814z"/><path d="M793.6,419.2l28.7-28.9c34.8-35.1,92-35.3,127-0.4l14.2,14.1c35.1,34.8,35.3,92,0.4,127l-28.8,28.9L793.6,419.2z"/><path d="M500.5,712.9l253.3-255.1l141.6,140.6L642.2,853.5L500.5,712.9z"/><path d="M463.8,753.7l0.4-0.4L605.8,894l-0.4,0.4l-233.1,82.9L463.8,753.7z"/></g>
</svg>